<svg width="111" height="109" viewBox="0 0 111 109" fill="none" xmlns="http://www.w3.org/2000/svg">
<circle cx="56.2966" cy="54.2966" r="54.2966" fill="#E6E5E5"/>
<path d="M82.6307 27.0839H71.7256V46.1183H82.6307V27.0839Z" fill="#174AAB"/>
<path d="M86.7942 17.3684H67.5615V27.6787H86.7942V17.3684Z" fill="#264584"/>
<path d="M8.87109 64.7561V108.575H86.5945V64.7561C71.3275 49.489 62.8016 40.9632 47.7327 25.8943C32.664 41.1613 24.1381 49.6872 8.87109 64.7561Z" fill="#FFD15C"/>
<path d="M86.7929 64.7561C71.5258 49.489 63 40.9632 47.9311 25.8943C40.1984 33.4286 34.2501 39.3768 28.3019 45.3251C22.3537 51.2733 16.4055 57.2215 8.87109 64.7559V73.6782C24.1381 58.4112 32.664 49.8853 47.7329 34.8164C63 50.0835 71.5258 58.6093 86.5947 73.6782V74.8679V64.7559H86.7929V64.7561Z" fill="#F7B64C"/>
<path d="M40.7937 108.575H17.3975V85.5749C17.3975 79.0318 22.7509 73.8767 29.0956 73.8767C35.6386 73.8767 40.7937 79.2301 40.7937 85.5749V108.575Z" fill="#415A6B"/>
<path d="M78.2677 73.8766H47.7334V100.644H78.2677V73.8766Z" fill="#344A5E"/>
<path d="M61.4157 77.0491H50.9072V97.4714H61.4157V77.0491Z" fill="#8AD7F8"/>
<path d="M75.0973 77.0491H64.5889V97.4714H75.0973V77.0491Z" fill="#8AD7F8"/>
<path d="M93.9321 56.6267L52.4928 15.1875C50.1136 12.8082 45.9498 12.8082 43.5705 15.1875L2.32939 56.6267C-0.0499009 59.006 -0.0499009 63.1698 2.32939 65.549C4.70868 67.9283 8.87244 67.9283 11.2517 65.549L48.1307 28.67L85.0098 65.549C87.389 67.9283 91.5528 67.9283 93.9321 65.549C96.3114 62.9716 96.3114 59.006 93.9321 56.6267Z" fill="#264584"/>
</svg>
