<svg width="113" height="109" viewBox="0 0 113 109" fill="none" xmlns="http://www.w3.org/2000/svg">
<circle cx="57.7517" cy="54.2966" r="54.2966" fill="#E6E5E5"/>
<path d="M70.8473 18.274H25.7627V105.223H70.8473V18.274Z" fill="#173A82"/>
<path d="M25.7627 81.0706V105.223H70.8475V30.9766L25.7627 81.0706Z" fill="#264584"/>
<path d="M64.4075 11.8334H32.2041V18.274H64.4075V11.8334Z" fill="#264584"/>
<path d="M64.4075 15.0536H32.2041V18.274H64.4075V15.0536Z" fill="#173A82"/>
<path d="M38.6447 26.325H32.2041V32.7656H38.6447V26.325Z" fill="#5085F2"/>
<path d="M51.5256 26.325H45.085V32.7656H51.5256V26.325Z" fill="#5085F2"/>
<path d="M64.4074 26.325H57.9668V32.7656H64.4074V26.325Z" fill="#5085F2"/>
<path d="M38.6447 39.2061H32.2041V45.6467H38.6447V39.2061Z" fill="#5085F2"/>
<path d="M51.5256 39.2061H45.085V45.6467H51.5256V39.2061Z" fill="#5085F2"/>
<path d="M64.4074 39.2061H57.9668V45.6467H64.4074V39.2061Z" fill="#5085F2"/>
<path d="M38.6447 52.0876H32.2041V58.5283H38.6447V52.0876Z" fill="#5085F2"/>
<path d="M51.5256 52.0876H45.085V58.5283H51.5256V52.0876Z" fill="#5085F2"/>
<path d="M64.4074 52.0876H57.9668V58.5283H64.4074V52.0876Z" fill="#5085F2"/>
<path d="M38.6447 64.969H32.2041V71.4096H38.6447V64.969Z" fill="#5085F2"/>
<path d="M51.5256 64.969H45.085V71.4096H51.5256V64.969Z" fill="#5085F2"/>
<path d="M64.4074 64.969H57.9668V71.4096H64.4074V64.969Z" fill="#5085F2"/>
<path d="M38.6447 77.8501H32.2041V84.2907H38.6447V77.8501Z" fill="#5085F2"/>
<path d="M51.5256 77.8501H45.085V84.2907H51.5256V77.8501Z" fill="#5085F2"/>
<path d="M64.4074 77.8501H57.9668V84.2907H64.4074V77.8501Z" fill="#5085F2"/>
<path d="M57.9675 92.3418H38.6455V105.223H57.9675V92.3418Z" fill="#5085F2"/>
<path d="M49.9147 92.3417H46.6943V105.223H49.9147V92.3417Z" fill="#61ACC9"/>
<path d="M15.7791 79.8614C16.1673 78.6843 16.209 77.422 15.9031 76.2225C15.3202 73.928 13.5137 72.1439 11.2111 71.5901C7.75088 70.7399 4.25688 72.8557 3.40664 76.3159C3.28267 76.8182 3.21983 77.3335 3.21983 77.8503C3.21983 78.4204 3.2955 78.9872 3.44532 79.5361C4.16669 81.9304 3.89459 84.5147 2.68848 86.7062C0.464747 90.5578 1.78521 95.48 5.63509 97.7037C9.48496 99.9274 14.4106 98.607 16.6326 94.7571C18.0221 92.35 18.0721 89.3952 16.7647 86.943C15.4795 84.8174 15.1221 82.2572 15.7791 79.8614Z" fill="#88B337"/>
<path d="M11.2722 77.8502H8.05176V106.833H11.2722V77.8502Z" fill="#79A125"/>
<path d="M93.0672 79.8614C93.4554 78.6843 93.4971 77.422 93.1912 76.2225C92.6083 73.928 90.8018 72.1439 88.4992 71.5901C85.039 70.7399 81.545 72.8557 80.6947 76.3159C80.5708 76.8182 80.5079 77.3335 80.5079 77.8503C80.5079 78.4204 80.5836 78.9872 80.7334 79.5361C81.4563 81.9321 81.1842 84.5196 79.9766 86.7126C77.7528 90.5642 79.0733 95.4864 82.9232 97.7101C86.773 99.9338 91.697 98.6134 93.9207 94.7635C95.3102 92.3564 95.3602 89.4016 94.0528 86.9494C92.7661 84.8223 92.4087 82.2589 93.0672 79.8614Z" fill="#88B337"/>
<path d="M88.5593 77.8502H85.3389V106.833H88.5593V77.8502Z" fill="#79A125"/>
<path d="M96.6101 103.613H0V106.833H96.6101V103.613Z" fill="#E0D2C1"/>
</svg>
