<svg width="113" height="109" viewBox="0 0 113 109" fill="none" xmlns="http://www.w3.org/2000/svg">
<circle cx="58.2966" cy="54.2966" r="54.2966" fill="#E6E5E5"/>
<path d="M88.5832 76.7221L56.6294 23.2475C54.1889 19.2157 49.9451 16.7752 45.2235 16.7752C40.5019 16.7752 36.2579 19.2157 33.8174 23.2475L1.86362 76.7221C-0.576331 80.9132 -0.629504 85.9 1.75781 90.091C4.14494 94.2817 8.44171 96.7752 13.2695 96.7752H77.1771C82.0049 96.7752 86.3019 94.2817 88.6889 90.091C91.0765 85.9 91.0233 80.9132 88.5832 76.7221Z" fill="#E50027"/>
<path d="M88.6893 90.091C86.3022 94.2817 82.0054 96.7752 77.1776 96.7752H45.2236V16.7754C49.9451 16.7754 54.1892 19.2159 56.6297 23.2477L88.5835 76.7223C91.0235 80.9132 91.0766 85.9 88.6893 90.091Z" fill="#C1001F"/>
<path d="M13.2687 91.4703C10.3313 91.4703 7.81872 90.0093 6.36803 87.4657C4.91752 84.9194 4.94331 81.974 6.45088 79.389L38.375 25.9577C39.836 23.5435 42.4056 22.08 45.2237 22.08C48.0419 22.08 50.6117 23.5434 52.0933 25.9941L84.0228 79.4304C85.5045 81.9742 85.5303 84.9194 84.0796 87.4655C82.6291 90.0093 80.1164 91.4701 77.179 91.4701H13.2687V91.4703Z" fill="#FD003A"/>
<path d="M77.179 91.4702C80.1164 91.4702 82.629 90.0093 84.0797 87.4657C85.5302 84.9194 85.5044 81.974 84.0228 79.4305L52.0932 25.9939C50.6114 23.5435 48.042 22.0798 45.2236 22.0798V91.4702H77.179Z" fill="#E50027"/>
<path d="M50.529 38.42V59.6401C50.529 62.5579 48.1417 64.945 45.2241 64.945C42.3064 64.945 39.9189 62.5577 39.9189 59.6401V38.42C39.9189 35.5022 42.3063 33.1149 45.2241 33.1149C48.1419 33.1149 50.529 35.5022 50.529 38.42Z" fill="#E1E4FB"/>
<path d="M50.5286 38.42V59.6401C50.5286 62.5579 48.1413 64.945 45.2236 64.945V33.1149C48.1413 33.1149 50.5286 35.5022 50.5286 38.42Z" fill="#C5C9F7"/>
<path d="M45.2242 70.2502C40.8209 70.2502 37.2666 73.8043 37.2666 78.2078C37.2666 82.6107 40.8207 86.1653 45.2242 86.1653C49.6277 86.1653 53.1818 82.6109 53.1818 78.2078C53.1818 73.8045 49.6273 70.2502 45.2242 70.2502Z" fill="#E1E4FB"/>
<path d="M53.1812 78.2076C53.1812 82.6105 49.6271 86.1652 45.2236 86.1652V70.2502C49.6267 70.2502 53.1812 73.8045 53.1812 78.2076Z" fill="#C5C9F7"/>
</svg>
